<?xml version="1.0" encoding="UTF-8" standalone="no"?>
<svg
   xmlns:dc="http://purl.org/dc/elements/1.1/"
   xmlns:cc="http://creativecommons.org/ns#"
   xmlns:rdf="http://www.w3.org/1999/02/22-rdf-syntax-ns#"
   xmlns:svg="http://www.w3.org/2000/svg"
   xmlns="http://www.w3.org/2000/svg"
   xmlns:xlink="http://www.w3.org/1999/xlink"
   xmlns:sodipodi="http://sodipodi.sourceforge.net/DTD/sodipodi-0.dtd"
   xmlns:inkscape="http://www.inkscape.org/namespaces/inkscape"
   width="30"
   height="24"
   viewBox="0 0 30 24"
   version="1.1"
   id="svg3899"
   sodipodi:docname="group-23-copy.svg"
   inkscape:version="0.92.3 (2405546, 2018-03-11)">
  <metadata
     id="metadata3903">
    <rdf:RDF>
      <cc:Work
         rdf:about="">
        <dc:format>image/svg+xml</dc:format>
        <dc:type
           rdf:resource="http://purl.org/dc/dcmitype/StillImage" />
      </cc:Work>
    </rdf:RDF>
  </metadata>
  <sodipodi:namedview
     pagecolor="#ffffff"
     bordercolor="#666666"
     borderopacity="1"
     objecttolerance="10"
     gridtolerance="10"
     guidetolerance="10"
     inkscape:pageopacity="0"
     inkscape:pageshadow="2"
     inkscape:window-width="1920"
     inkscape:window-height="1017"
     id="namedview3901"
     showgrid="false"
     inkscape:zoom="18.933333"
     inkscape:cx="10.528251"
     inkscape:cy="13.552731"
     inkscape:window-x="-8"
     inkscape:window-y="-8"
     inkscape:window-maximized="1"
     inkscape:current-layer="svg3899" />
  <defs
     id="defs3891">
    <path
       id="b"
       d="M15.696 10.563c-.503-.61-1.93-1.62-3.305-1.626.02-.043.886-.613.826-1.624l2.714-.01c1.694 0 3.069.195 3.069 1.635v1.623l-3.304.002zm-12.392 0L0 10.562V8.938c0-1.44 1.374-1.634 3.068-1.634h2.703c.01.76.838 1.634.838 1.634-1.404 0-2.977 1.007-3.305 1.624zM14.27 6.506h-1.053v-.82c0-1.599-.936-3.1-2.294-3.738C11.321.816 12.376 0 13.63 0c1.592 0 2.883 1.31 2.883 2.927v.732c0 1.392-.96 2.553-2.243 2.848zm-8.487-.82v.82H4.729A2.914 2.914 0 0 1 2.486 3.66v-.732C2.486 1.31 3.776 0 5.37 0c1.253 0 2.308.816 2.706 1.95-1.357.637-2.293 2.139-2.293 3.738zM4.13 13v-1.303c0-1.44 1.373-1.955 3.069-1.955H11.8c1.694 0 3.068.515 3.068 1.955V13H4.129zm6.01-4.055H8.86a2.914 2.914 0 0 1-2.244-2.849v-.731c0-1.617 1.291-2.928 2.884-2.928s2.884 1.311 2.884 2.928v.731c-.001 1.393-.96 2.553-2.245 2.849z" />
    <filter
       id="a"
       width="205.3%"
       height="253.8%"
       x="-42.1%"
       y="-61.5%"
       filterUnits="objectBoundingBox">
      <feOffset
         dx="2"
         dy="2"
         in="SourceAlpha"
         result="shadowOffsetOuter1"
         id="feOffset3884" />
      <feGaussianBlur
         in="shadowOffsetOuter1"
         result="shadowBlurOuter1"
         stdDeviation="3"
         id="feGaussianBlur3886" />
      <feColorMatrix
         in="shadowBlurOuter1"
         values="0 0 0 0 0.349019608 0 0 0 0 0.37254902 0 0 0 0 0.411764706 0 0 0 0.2 0"
         id="feColorMatrix3888" />
    </filter>
  </defs>
  <g
     transform="translate(5.7711268,4.9260563)"
     id="g3897"
     style="fill:none;fill-rule:nonzero">
    <use
       xlink:href="#b"
       id="use3893"
       style="fill:#000000;filter:url(#a)"
       x="0"
       y="0"
       width="100%"
       height="100%" />
    <use
       xlink:href="#b"
       id="use3895"
       style="fill:#ffffff;fill-rule:evenodd"
       x="0"
       y="0"
       width="100%"
       height="100%" />
  </g>
</svg>
