<?xml version="1.0" encoding="UTF-8" standalone="no"?>
<svg
   xmlns:dc="http://purl.org/dc/elements/1.1/"
   xmlns:cc="http://creativecommons.org/ns#"
   xmlns:rdf="http://www.w3.org/1999/02/22-rdf-syntax-ns#"
   xmlns:svg="http://www.w3.org/2000/svg"
   xmlns="http://www.w3.org/2000/svg"
   xmlns:xlink="http://www.w3.org/1999/xlink"
   xmlns:sodipodi="http://sodipodi.sourceforge.net/DTD/sodipodi-0.dtd"
   xmlns:inkscape="http://www.inkscape.org/namespaces/inkscape"
   width="30"
   height="29"
   viewBox="0 0 30 29"
   version="1.1"
   id="svg4041"
   sodipodi:docname="desktop-copy.svg"
   inkscape:version="0.92.3 (2405546, 2018-03-11)">
  <metadata
     id="metadata4045">
    <rdf:RDF>
      <cc:Work
         rdf:about="">
        <dc:format>image/svg+xml</dc:format>
        <dc:type
           rdf:resource="http://purl.org/dc/dcmitype/StillImage" />
      </cc:Work>
    </rdf:RDF>
  </metadata>
  <sodipodi:namedview
     pagecolor="#ffffff"
     bordercolor="#666666"
     borderopacity="1"
     objecttolerance="10"
     gridtolerance="10"
     guidetolerance="10"
     inkscape:pageopacity="0"
     inkscape:pageshadow="2"
     inkscape:window-width="1920"
     inkscape:window-height="1017"
     id="namedview4043"
     showgrid="false"
     inkscape:zoom="23.017545"
     inkscape:cx="13.959164"
     inkscape:cy="16.409739"
     inkscape:window-x="-8"
     inkscape:window-y="-8"
     inkscape:window-maximized="1"
     inkscape:current-layer="svg4041" />
  <defs
     id="defs4033">
    <path
       id="b"
       d="M16.714 12.874H1.286C.576 12.874 0 12.394 0 11.8V1.073C0 .48.576 0 1.286 0h15.428C17.424 0 18 .48 18 1.073V11.8c0 .592-.576 1.073-1.286 1.073zM15.5 2.476h-13v7.922h13V2.476zm-8 13.039v-2.641h2.667v2.64H7.5zm1.52.165c0-.736.591-1.334 1.32-1.334h1.322c.727 0 1.32.598 1.32 1.334v1.333H9.019V15.68zm-.038 0v1.333H5.019V15.68c0-.736.593-1.334 1.32-1.334h1.323c.728 0 1.32.598 1.32 1.334z" />
    <filter
       id="a"
       width="211.1%"
       height="217.6%"
       x="-44.4%"
       y="-47.1%"
       filterUnits="objectBoundingBox">
      <feOffset
         dx="2"
         dy="2"
         in="SourceAlpha"
         result="shadowOffsetOuter1"
         id="feOffset4026" />
      <feGaussianBlur
         in="shadowOffsetOuter1"
         result="shadowBlurOuter1"
         stdDeviation="3"
         id="feGaussianBlur4028" />
      <feColorMatrix
         in="shadowBlurOuter1"
         values="0 0 0 0 0.654901961 0 0 0 0 0.4 0 0 0 0 0.180392157 0 0 0 0.2 0"
         id="feColorMatrix4030" />
    </filter>
  </defs>
  <g
     transform="translate(5.9115852,6.3673779)"
     id="g4039"
     style="fill:none;fill-rule:nonzero">
    <use
       xlink:href="#b"
       id="use4035"
       style="fill:#000000;filter:url(#a)"
       x="0"
       y="0"
       width="100%"
       height="100%" />
    <use
       xlink:href="#b"
       id="use4037"
       style="fill:#ffffff;fill-rule:evenodd"
       x="0"
       y="0"
       width="100%"
       height="100%" />
  </g>
</svg>
