<?xml version="1.0" encoding="UTF-8" standalone="no"?>
<svg
   xmlns:dc="http://purl.org/dc/elements/1.1/"
   xmlns:cc="http://creativecommons.org/ns#"
   xmlns:rdf="http://www.w3.org/1999/02/22-rdf-syntax-ns#"
   xmlns:svg="http://www.w3.org/2000/svg"
   xmlns="http://www.w3.org/2000/svg"
   xmlns:xlink="http://www.w3.org/1999/xlink"
   xmlns:sodipodi="http://sodipodi.sourceforge.net/DTD/sodipodi-0.dtd"
   xmlns:inkscape="http://www.inkscape.org/namespaces/inkscape"
   width="38"
   height="26"
   viewBox="0 0 38 26"
   version="1.1"
   id="svg3953"
   sodipodi:docname="files-copy-5.svg"
   inkscape:version="0.92.3 (2405546, 2018-03-11)">
  <metadata
     id="metadata3957">
    <rdf:RDF>
      <cc:Work
         rdf:about="">
        <dc:format>image/svg+xml</dc:format>
        <dc:type
           rdf:resource="http://purl.org/dc/dcmitype/StillImage" />
      </cc:Work>
    </rdf:RDF>
  </metadata>
  <sodipodi:namedview
     pagecolor="#ffffff"
     bordercolor="#666666"
     borderopacity="1"
     objecttolerance="10"
     gridtolerance="10"
     guidetolerance="10"
     inkscape:pageopacity="0"
     inkscape:pageshadow="2"
     inkscape:window-width="1920"
     inkscape:window-height="1017"
     id="namedview3955"
     showgrid="false"
     inkscape:zoom="21.138771"
     inkscape:cx="17.690697"
     inkscape:cy="14.550438"
     inkscape:window-x="-8"
     inkscape:window-y="-8"
     inkscape:window-maximized="1"
     inkscape:current-layer="svg3953" />
  <defs
     id="defs3940">
    <path
       id="a"
       d="M18.919.119C21.816.119 24 2.868 24 5.989c0 3.136-2.197 5.895-5.11 5.895-.272 0-.549-.02-.822-.062l-.841-.126c-1.684-.252-2.38-.397-4.775-.397-1.908 0-2.058.094-3.406.264l-3.103.393c-.234.03-.47.044-.7.044C2.254 12 0 9.191 0 5.989 0 2.801 2.243 0 5.219 0c.237 0 .48.016.722.048l3.108.405c1.348.176 1.497.274 3.405.274 2.396 0 3.09-.15 4.769-.41l.847-.131c.284-.044.569-.067.849-.067zm-.029 8.328c1.036 0 2.151-1.04 2.151-2.458 0-1.4-1.1-2.433-2.122-2.433-.15 0-.304.012-.456.036l-.849.131c-1.804.28-2.64.44-5.16.44-2.046 0-2.262-.101-3.736-.294L5.61 3.463a3.044 3.044 0 0 0-.391-.026c-1.123 0-2.26 1.136-2.26 2.552 0 1.43 1.15 2.575 2.284 2.575.124 0 .252-.008.38-.024l3.103-.394c1.471-.185 1.684-.283 3.726-.283 2.518 0 3.352.154 5.154.424l.84.126c.15.023.298.034.444.034z" />
    <filter
       id="b"
       width="195.8%"
       height="291.7%"
       x="-39.6%"
       y="-79.2%"
       filterUnits="objectBoundingBox">
      <feOffset
         dx="2"
         dy="2"
         in="SourceAlpha"
         result="shadowOffsetOuter1"
         id="feOffset3933" />
      <feGaussianBlur
         in="shadowOffsetOuter1"
         result="shadowBlurOuter1"
         stdDeviation="3.5"
         id="feGaussianBlur3935" />
      <feColorMatrix
         in="shadowBlurOuter1"
         values="0 0 0 0 0.0823529412 0 0 0 0 0.145098039 0 0 0 0 0.188235294 0 0 0 0.2 0"
         id="feColorMatrix3937" />
    </filter>
  </defs>
  <g
     transform="translate(7.1760963,6.4191932)"
     id="g3951"
     style="fill:none;fill-rule:evenodd">
    <mask
       id="c"
       fill="#fff">
      <use
         xlink:href="#a"
         id="use3942"
         x="0"
         y="0"
         width="100%"
         height="100%" />
    </mask>
    <use
       xlink:href="#a"
       id="use3945"
       style="fill:#000000;filter:url(#b)"
       x="0"
       y="0"
       width="100%"
       height="100%" />
    <use
       xlink:href="#a"
       id="use3947"
       style="fill:#ffffff"
       x="0"
       y="0"
       width="100%"
       height="100%" />
    <path
       d="M -0.889,13.846 H 25.778 V -0.924 H -0.89 Z"
       mask="url(#c)"
       id="path3949"
       inkscape:connector-curvature="0"
       style="fill:#ffffff" />
  </g>
</svg>
