<?xml version="1.0" encoding="UTF-8" standalone="no"?>
<svg
   xmlns:dc="http://purl.org/dc/elements/1.1/"
   xmlns:cc="http://creativecommons.org/ns#"
   xmlns:rdf="http://www.w3.org/1999/02/22-rdf-syntax-ns#"
   xmlns:svg="http://www.w3.org/2000/svg"
   xmlns="http://www.w3.org/2000/svg"
   xmlns:xlink="http://www.w3.org/1999/xlink"
   xmlns:sodipodi="http://sodipodi.sourceforge.net/DTD/sodipodi-0.dtd"
   xmlns:inkscape="http://www.inkscape.org/namespaces/inkscape"
   width="28"
   height="31"
   viewBox="0 0 28 31"
   version="1.1"
   id="svg3997"
   sodipodi:docname="files-copy-4.svg"
   inkscape:version="0.92.3 (2405546, 2018-03-11)">
  <metadata
     id="metadata4001">
    <rdf:RDF>
      <cc:Work
         rdf:about="">
        <dc:format>image/svg+xml</dc:format>
        <dc:type
           rdf:resource="http://purl.org/dc/dcmitype/StillImage" />
      </cc:Work>
    </rdf:RDF>
  </metadata>
  <sodipodi:namedview
     pagecolor="#ffffff"
     bordercolor="#666666"
     borderopacity="1"
     objecttolerance="10"
     gridtolerance="10"
     guidetolerance="10"
     inkscape:pageopacity="0"
     inkscape:pageshadow="2"
     inkscape:window-width="1920"
     inkscape:window-height="1017"
     id="namedview3999"
     showgrid="false"
     inkscape:zoom="21.532542"
     inkscape:cx="10.282378"
     inkscape:cy="16.077419"
     inkscape:window-x="-8"
     inkscape:window-y="-8"
     inkscape:window-maximized="1"
     inkscape:current-layer="svg3997" />
  <defs
     id="defs3989">
    <path
       id="b"
       d="M14.545 19H1.455A1.46 1.46 0 0 1 0 17.538V1.462C0 .653.652 0 1.455 0h9.106L16 5.846v11.692A1.46 1.46 0 0 1 14.545 19zM3.2 11.975c0 .399.323.722.721.722h8.104a.721.721 0 1 0 0-1.443H3.921a.721.721 0 0 0-.721.721zm0-3.215c0 .398.323.721.721.721h8.104a.721.721 0 0 0 0-1.443H3.921a.721.721 0 0 0-.721.722zm0-3.216c0 .399.323.722.721.722h3.912a.721.721 0 1 0 0-1.443H3.92a.721.721 0 0 0-.721.721zm0 9.647c0 .398.323.721.721.721h8.104a.721.721 0 0 0 0-1.443H3.921a.721.721 0 0 0-.721.722zM10.053.644V5.19a1.2 1.2 0 0 0 1.2 1.2h4.154L10.053.644z" />
    <filter
       id="a"
       width="225%"
       height="205.3%"
       x="-50%"
       y="-42.1%"
       filterUnits="objectBoundingBox">
      <feOffset
         dx="2"
         dy="2"
         in="SourceAlpha"
         result="shadowOffsetOuter1"
         id="feOffset3982" />
      <feGaussianBlur
         in="shadowOffsetOuter1"
         result="shadowBlurOuter1"
         stdDeviation="3"
         id="feGaussianBlur3984" />
      <feColorMatrix
         in="shadowBlurOuter1"
         values="0 0 0 0 0.0823529412 0 0 0 0 0.145098039 0 0 0 0 0.188235294 0 0 0 0.2 0"
         id="feColorMatrix3986" />
    </filter>
  </defs>
  <g
     transform="translate(6.1827428,5.1610334)"
     id="g3995"
     style="fill:none;fill-rule:nonzero">
    <use
       xlink:href="#b"
       id="use3991"
       style="fill:#000000;filter:url(#a)"
       x="0"
       y="0"
       width="100%"
       height="100%" />
    <use
       xlink:href="#b"
       id="use3993"
       style="fill:#ffffff;fill-rule:evenodd"
       x="0"
       y="0"
       width="100%"
       height="100%" />
  </g>
</svg>
